<svg id="Layer_1" data-name="Layer 1" xmlns="http://www.w3.org/2000/svg" viewBox="0 0 565 565"><defs><style>.cls-1{fill:#d6b863;}.cls-2{fill:#392d0d;}.cls-3{fill:#766120;}.cls-4{fill:#ba9314;}.cls-5{fill:#9c7f2d;}.cls-6{opacity:0.55;}.cls-7{fill:#fff;}</style></defs><path class="cls-1" d="M283,282.4,367.56,13.22a279,279,0,0,1,66.79,31.05Z"/><path class="cls-2" d="M283,282.4,114.94,55.78C190,.08,278.36-14.8,367.56,13.22Z"/><path class="cls-3" d="M283,282.4,15.55,372.22C-24.14,254.05,14.81,130,114.94,55.78Z"/><path class="cls-4" d="M283,282.4,354,555.48C209.18,593.09,63.17,514,15.55,372.22Z"/><path class="cls-5" d="M283,282.4,434.35,44.27c131.51,83.58,170.37,258,86.79,389.46C481,496.86,426.35,536.67,354,555.48Z"/><g class="cls-6"><path class="cls-7" d="M83.27,248.52H94.14v2.9H79.84V250c0-4.69,2-6.1,7-7.15,2.67-.55,3.9-.84,3.9-2s-1-1.65-3.24-1.65a10.79,10.79,0,0,0-5.76,1.58L80.55,238a12.52,12.52,0,0,1,6.91-1.82c4.26,0,6.75,1.45,6.75,4.73s-2.53,3.83-6.53,4.68C84.79,246.23,83.52,246.6,83.27,248.52Z"/><path class="cls-7" d="M96.47,243.94c0-4.57,3.26-7.74,8-7.74s8,3.17,8,7.74-3.25,7.75-8,7.75S96.47,248.52,96.47,243.94Zm12.5,0c0-2.86-1.78-4.73-4.53-4.73s-4.53,1.87-4.53,4.73,1.78,4.73,4.53,4.73S109,246.8,109,243.94Z"/><path class="cls-7" d="M114.27,240.49a4.38,4.38,0,1,1,4.38,4.18A4.1,4.1,0,0,1,114.27,240.49Zm6.49,0a2.11,2.11,0,1,0-2.11,2.22A2.06,2.06,0,0,0,120.76,240.49Zm6.82-4h2.31l-9.17,15h-2.31Zm-2.31,10.94a4.38,4.38,0,1,1,4.38,4.18A4.1,4.1,0,0,1,125.27,247.4Zm6.49,0a2.11,2.11,0,1,0-2.11,2.22A2.06,2.06,0,0,0,131.76,247.4Z"/></g><g class="cls-6"><path class="cls-7" d="M162.89,421.3h10.87v2.9h-14.3v-1.47c0-4.69,2-6.1,7-7.15,2.66-.55,3.9-.84,3.9-2s-1-1.65-3.24-1.65a10.79,10.79,0,0,0-5.76,1.58l-1.24-2.73a12.54,12.54,0,0,1,6.91-1.82c4.27,0,6.76,1.45,6.76,4.73s-2.53,3.83-6.54,4.68C164.41,419,163.13,419.38,162.89,421.3Z"/><path class="cls-7" d="M191.49,420.92h-2.2v3.28h-3.38v-3.28H175.72v-3.38l9.83-8.3h3.74V418h2.2Zm-5.58-2.9v-5.41L179.48,418Z"/><path class="cls-7" d="M193.12,413.27a4.38,4.38,0,1,1,4.38,4.18A4.09,4.09,0,0,1,193.12,413.27Zm6.49,0a2.11,2.11,0,1,0-2.11,2.22A2.06,2.06,0,0,0,199.61,413.27Zm6.82-4h2.31l-9.17,15h-2.31Zm-2.31,10.94a4.38,4.38,0,1,1,4.38,4.18A4.1,4.1,0,0,1,204.12,420.18Zm6.49,0a2.11,2.11,0,1,0-2.11,2.22A2.07,2.07,0,0,0,210.61,420.18Z"/></g><g class="cls-6"><path class="cls-7" d="M423.18,295.63c0,2.92-2.6,4.51-7.42,4.51a13.29,13.29,0,0,1-7.81-2.09l1.25-2.73a11.08,11.08,0,0,0,6.52,1.85c2.62,0,4-.66,4-1.92,0-1.05-.83-1.51-2.79-1.51h-4.82v-2.86h4.29c1.92,0,2.73-.44,2.73-1.48s-1.19-1.78-3.5-1.78a10.94,10.94,0,0,0-5.81,1.56l-1.19-2.68a12.89,12.89,0,0,1,7.11-1.85c4.45,0,6.82,1.5,6.82,4.25a3.16,3.16,0,0,1-2.42,3.21C422.16,292.66,423.18,293.82,423.18,295.63Z"/><path class="cls-7" d="M439.15,284.91v2.58l-8.49,12.39h-4.12L435,287.82h-10v-2.91Z"/><path class="cls-7" d="M440.75,288.94a4.38,4.38,0,1,1,4.38,4.18A4.1,4.1,0,0,1,440.75,288.94Zm6.49,0a2.11,2.11,0,1,0-2.11,2.22A2.06,2.06,0,0,0,447.24,288.94Zm6.82-4h2.31l-9.17,15h-2.31Zm-2.31,10.94a4.38,4.38,0,1,1,4.38,4.18A4.1,4.1,0,0,1,451.75,295.85Zm6.49,0a2.11,2.11,0,1,0-2.11,2.22A2.06,2.06,0,0,0,458.24,295.85Z"/></g><g class="cls-6"><path class="cls-7" d="M237.65,88.87v2.9h-11.9v-2.9H230V80l-4.24,2V78.81l4.24-2h3.39V88.87Z"/><path class="cls-7" d="M254.19,87c0,3.35-2.55,5.09-7.19,5.09A13.1,13.1,0,0,1,239.34,90l1.26-2.73A10.94,10.94,0,0,0,247,89.07c2.5,0,3.8-.71,3.8-2s-1.14-1.89-3.54-1.89a9.22,9.22,0,0,0-4.73,1.08l-2.38-.64.82-8.76h12.38v2.9h-9.63l-.38,4a8.87,8.87,0,0,1,5.09-1.43C252.08,82.24,254.19,83.92,254.19,87Z"/><path class="cls-7" d="M256,80.84A4.38,4.38,0,1,1,260.4,85,4.09,4.09,0,0,1,256,80.84Zm6.49,0a2.12,2.12,0,1,0-2.11,2.22A2.07,2.07,0,0,0,262.51,80.84Zm6.82-4h2.31l-9.18,15h-2.31ZM267,87.75a4.38,4.38,0,1,1,4.38,4.18A4.1,4.1,0,0,1,267,87.75Zm6.49,0A2.11,2.11,0,1,0,271.4,90,2.07,2.07,0,0,0,273.51,87.75Z"/></g><g class="cls-6"><path class="cls-7" d="M370.64,96.83h-2.2v3.27h-3.39V96.83H354.86V93.44l9.84-8.3h3.74v8.78h2.2Zm-5.59-2.91V88.51l-6.42,5.41Z"/><path class="cls-7" d="M372.27,89.17a4.38,4.38,0,1,1,4.37,4.18A4.1,4.1,0,0,1,372.27,89.17Zm6.49,0a2.12,2.12,0,1,0-2.12,2.22A2.06,2.06,0,0,0,378.76,89.17Zm6.82-4h2.31l-9.18,15H376.4Zm-2.31,10.94a4.38,4.38,0,1,1,4.38,4.18A4.09,4.09,0,0,1,383.27,96.08Zm6.49,0a2.12,2.12,0,1,0-2.11,2.22A2.06,2.06,0,0,0,389.76,96.08Z"/></g></svg>